<svg xmlns="http://www.w3.org/2000/svg" viewBox="0 0 716.87 294.94"><defs><style>.cls-1{stroke:#000;stroke-miterlimit:10;stroke-width:8px;}</style></defs><title>Asset 13</title><g id="Layer_2" data-name="Layer 2"><g id="Layer_1-2" data-name="Layer 1"><path class="cls-1" d="M198.17,258.15a48.62,48.62,0,0,1,2.16-14.24c13.37-43.37,75.08-69.69,129.66-84.79C348.76,130,360.84,111,375.08,95.47,347,113,310.36,147.9,277.35,147.9a41.26,41.26,0,0,1-20.93-5.61c-11.87-6.69-17.91-19-17.91-32.58,1.3-28,18.56-48.32,44.45-69C231,26.87,168.83,7.45,113,7.45,72,7.45,34.2,18,6.16,48.87a1.57,1.57,0,0,1-1.3.87A.79.79,0,0,1,4,48.87a2.36,2.36,0,0,1,.65-1.51C33.77,15,72.82,4,114.89,4c56.74,0,119.09,19.63,172,33.66C316.61,15,343.15,6.8,363,6.8c22.65,0,36.46,10.58,36.46,22,0,9.06-9.06,18.77-30.21,23.73a68.12,68.12,0,0,1-15.31,1.51c-16.83,0-37.54-4.53-63-11-33.87,26.32-46.82,50.91-46.82,69,0,19.2,14.24,31.28,33.44,31.28a50.28,50.28,0,0,0,12.3-1.51C325,133,380.47,82.53,391.69,82.53c1.3,0,1.94.65,1.94,2.16v.21a2,2,0,0,1-.64,1.51c-14,11.44-32.58,38.62-53.72,71.2,8.84-1.94,17.9-3.67,20.49-3.67.87,0,1.94,0,1.94.43,0,.22-.21.43-.86.65-3.24,1.08-12.51,3.24-23.95,5.83C326.32,176,294,244.12,261.17,275.41c-11.44,11.21-22.66,15.31-32.58,15.53C213.27,290.94,198.17,279.29,198.17,258.15Zm129.45-94.93c-38.84,10.79-108.52,36-124.06,80.9a39.43,39.43,0,0,0-2.37,13.59c0,21.15,15.53,30.21,27,30.21C269.8,287.92,310.57,189.54,327.62,163.22ZM368.39,49.09C387,44.78,395.14,36.58,395.14,29c0-9.07-11.65-17.48-30.42-17.48-17.9,0-42.5,7.55-69.9,28.91,23.52,6,42.94,10.36,58.68,10.36A64,64,0,0,0,368.39,49.09Z"/><path class="cls-1" d="M439.72,152.63a2.34,2.34,0,0,0-1.51.43c-11.86,8.2-57.6,41.21-72.27,41.21a6.53,6.53,0,0,1-2.16-.22,3.32,3.32,0,0,1-2.59-3.67c0-6.9,11.87-22,11.87-31.93a7.66,7.66,0,0,0-2.38-6c3.24-1.94,9.93-9.28,9.93-12.51a1.42,1.42,0,0,0-1.3-1.51l-1.08-.22c-5.39,0-12.51,8-12.51,13.16a4.85,4.85,0,0,0,.1.95c-.44.13-.89.22-1.35.31-2,.38-4,.91-6,1.3-.53.1-2.13.51-2,1s.47,1.1,1,1c2-.38,5.55-1,7.55-1.37a17,17,0,0,0,1.74-.43,4.39,4.39,0,0,0,1.14.91,3.8,3.8,0,0,1,1.29,3.24,18.61,18.61,0,0,1-.86,4.53c-1.94,6-10.36,19.41-10.36,27.83,0,3.23,1.3,5.82,4.75,6.9l2.59.43c16.61,0,61.06-34.52,74-43.58a1.75,1.75,0,0,0,1.08-1.29C440.37,152.63,440.15,152.63,439.72,152.63Zm-70.12-2.38c0-1.51,5.18-7.55,7.56-8.84.21,0,.21,0,.21.21,0,.87-4.53,7.12-7.77,8.85Z"/><path class="cls-1" d="M431.34,188c-4.53-1.94-6.25-6.26-6.25-11.22a31,31,0,0,1,4.1-14.46c8.63-15.31,19.2-20.06,25.89-20.06,3.88,0,6.47,1.51,6.47,3.67,0,5.39-9.5,14.24-27.19,17.69-2.8,5.61-3.88,9.92-3.88,13.16,0,6,3.67,8.63,8.63,8.85h1.08c16.18,0,45.52-18.34,64.94-32.8l1.08-.43a1,1,0,0,1,.86.65,1.57,1.57,0,0,1-.86,1.29c-20.93,16-51.13,35-68.39,35A15.85,15.85,0,0,1,431.34,188Zm27.83-40.56a1.89,1.89,0,0,0-.64-1.3,3.47,3.47,0,0,0-2.38-.86c-4.31,0-12.73,4.1-20.06,15.1C446.23,159.53,459.17,151.55,459.17,147.45Z"/><path class="cls-1" d="M462.6,258.13a26.61,26.61,0,0,1-1.51-9.5c0-44.66,72.28-147.35,91.91-176.48-23.3-4.53-50.27-9.7-75.51-9.7-19.63,0-38.19,3-53.07,12.29l-1.08.43a.79.79,0,0,1-.87-.86,2.26,2.26,0,0,1,1.08-1.51C439.73,62.66,460,59.21,481.37,59.21c25,0,51.35,4.75,74.22,8.84C563.35,56.84,580,34,589,22.53a4.26,4.26,0,0,1,3-1.29c1.72,0,3.45,1.08,3.45,2.37a2.29,2.29,0,0,1-.65,1.51C584.71,38.5,570,59,563.14,69.57c3.67.43,7.12,1.29,10.57,1.72,20.06,3.24,53.29,8.2,82.85,8.2,22.43,0,42.93-2.81,53.93-11.44a2.87,2.87,0,0,1,1.51-.64.93.93,0,0,1,.87.86,1.87,1.87,0,0,1-.87,1.51c-12.73,9.93-36.46,13.16-61.7,13.16-28.26,0-58.68-4.1-77.67-7.33-3.88-.65-8-1.51-12.3-2.16-20.92,29.12-96.86,137.64-96.86,176.26a18.65,18.65,0,0,0,1.29,7.34l.22.86c0,.86-.44,1.51-1.08,1.51C463.47,259.42,463,259,462.6,258.13Z"/><path class="cls-1" d="M547,214.58c-5.9,0-8.21-5.14-8.21-12.33s2.31-16.68,6.42-25.15c-10,7.44-17.71,10.27-23.11,10.27-7.18,0-10.52-4.88-10.52-11.3,0-10.52,9-24.89,25.93-29.51a15.53,15.53,0,0,1,4.87-.52c5.65,0,10.53,2.83,15.4,9.76l3.6-5.39a1.54,1.54,0,0,1,1.54-.77c1.79,0,4.1,2.05,4.1,3.59l-.25.77c-4.88,6.16-9.76,14.37-14.89,23.61-6.16,11-8.21,19.51-8.21,24.9,0,5.14,1.79,8,4.36,8.22h.51c16.94,0,66.48-50.06,89.58-56.47l1-.26a1.17,1.17,0,0,1,1.28,1c0,.25-.51.77-1,1.28-30.29,12.58-72.9,57.75-91.64,58.27Zm8.22-55.19c-3.85-6.67-8.22-9.24-12.58-9.24-6.93,0-13.86,6.42-19.25,13.6-5.13,6.68-7.19,11.55-7.19,15.15,0,3.33,2.06,5.13,5.65,5.13C528.8,184,542.14,176.33,555.24,159.39Z"/><path d="M643.28,139.76c-16.87-5.09-27.68-6.38-35.61-2.19s-12.95,13.84-18.26,30.65c5.31-16.81,6.73-27.56,2.59-35.38S578.2,120.12,561.32,115c16.88,5.09,27.69,6.38,35.61,2.2s13-13.84,18.26-30.65c-5.31,16.81-6.72,27.56-2.59,35.38S626.41,134.67,643.28,139.76Z"/></g></g></svg>